<svg width="90" height="78" viewBox="0 0 90 78" fill="none" xmlns="http://www.w3.org/2000/svg">
<rect width="90" height="78" fill="black"/>
<mask id="path-1-outside-1_2596_5225" maskUnits="userSpaceOnUse" x="7" y="11" width="76" height="56" fill="black">
<rect fill="white" x="7" y="11" width="76" height="56"/>
<path d="M10.7713 65L35.6113 13.592H54.4753L79.2433 65H61.8913L42.3793 22.016H46.4113L26.8273 65H10.7713ZM26.5393 55.064V43.544H62.0353V55.064H26.5393Z"/>
</mask>
<path d="M10.7713 65L35.6113 13.592H54.4753L79.2433 65H61.8913L42.3793 22.016H46.4113L26.8273 65H10.7713ZM26.5393 55.064V43.544H62.0353V55.064H26.5393Z" fill="white"/>
<path d="M10.7713 65L8.97052 64.1299L7.58369 67H10.7713V65ZM35.6113 13.592V11.592H34.3565L33.8105 12.7219L35.6113 13.592ZM54.4753 13.592L56.2771 12.7239L55.7318 11.592H54.4753V13.592ZM79.2433 65V67H82.4269L81.0451 64.1319L79.2433 65ZM61.8913 65L60.0702 65.8267L60.6028 67H61.8913V65ZM42.3793 22.016V20.016H39.275L40.5582 22.8427L42.3793 22.016ZM46.4113 22.016L48.2313 22.8452L49.5203 20.016H46.4113V22.016ZM26.8273 65V67H28.1139L28.6473 65.8292L26.8273 65ZM26.5393 55.064H24.5393V57.064H26.5393V55.064ZM26.5393 43.544V41.544H24.5393V43.544H26.5393ZM62.0353 43.544H64.0353V41.544H62.0353V43.544ZM62.0353 55.064V57.064H64.0353V55.064H62.0353ZM10.7713 65L12.5721 65.8701L37.4121 14.4621L35.6113 13.592L33.8105 12.7219L8.97052 64.1299L10.7713 65ZM35.6113 13.592V15.592H54.4753V13.592V11.592H35.6113V13.592ZM54.4753 13.592L52.6735 14.4601L77.4415 65.8681L79.2433 65L81.0451 64.1319L56.2771 12.7239L54.4753 13.592ZM79.2433 65V63H61.8913V65V67H79.2433V65ZM61.8913 65L63.7125 64.1733L44.2005 21.1893L42.3793 22.016L40.5582 22.8427L60.0702 65.8267L61.8913 65ZM42.3793 22.016V24.016H46.4113V22.016V20.016H42.3793V22.016ZM46.4113 22.016L44.5913 21.1868L25.0073 64.1708L26.8273 65L28.6473 65.8292L48.2313 22.8452L46.4113 22.016ZM26.8273 65V63H10.7713V65V67H26.8273V65ZM26.5393 55.064H28.5393V43.544H26.5393H24.5393V55.064H26.5393ZM26.5393 43.544V45.544H62.0353V43.544V41.544H26.5393V43.544ZM62.0353 43.544H60.0353V55.064H62.0353H64.0353V43.544H62.0353ZM62.0353 55.064V53.064H26.5393V55.064V57.064H62.0353V55.064Z" fill="white" mask="url(#path-1-outside-1_2596_5225)"/>
</svg>
