<svg width="90" height="78" viewBox="0 0 90 78" fill="none" xmlns="http://www.w3.org/2000/svg">
<rect width="90" height="78" fill="black"/>
<mask id="path-1-outside-1_2596_5223" maskUnits="userSpaceOnUse" x="9" y="10" width="72" height="59" fill="black">
<rect fill="white" x="9" y="10" width="72" height="59"/>
<path d="M45.5071 66.008C38.5951 66.008 32.6191 64.928 27.5791 62.768C22.5391 60.608 18.6511 57.536 15.9151 53.552C13.1791 49.52 11.8111 44.768 11.8111 39.296C11.8111 36.56 12.1471 34.016 12.8191 31.664C13.5391 29.264 14.5711 27.08 15.9151 25.112C17.2591 23.096 18.9151 21.32 20.8831 19.784C22.8511 18.248 25.0831 16.952 27.5791 15.896C30.0751 14.792 32.8111 13.976 35.7871 13.448C38.8111 12.872 42.0511 12.584 45.5071 12.584C51.9391 12.584 57.4831 13.376 62.1391 14.96C66.8431 16.496 70.5631 18.728 73.2991 21.656C76.0351 24.584 77.6671 28.16 78.1951 32.384H61.2031C60.6751 30.704 59.7151 29.288 58.3231 28.136C56.9311 26.984 55.1551 26.12 52.9951 25.544C50.8351 24.92 48.3391 24.608 45.5071 24.608C43.7791 24.608 42.1471 24.776 40.6111 25.112C39.0751 25.4 37.6591 25.832 36.3631 26.408C35.1151 26.984 33.9871 27.704 32.9791 28.568C32.0191 29.384 31.2031 30.344 30.5311 31.448C29.8591 32.552 29.3311 33.752 28.9471 35.048C28.6111 36.344 28.4431 37.76 28.4431 39.296C28.4431 42.32 29.1391 44.936 30.5311 47.144C31.9231 49.304 33.8911 50.984 36.4351 52.184C38.9791 53.384 42.0031 53.984 45.5071 53.984C48.3871 53.984 50.8831 53.696 52.9951 53.12C55.1551 52.496 56.9311 51.608 58.3231 50.456C59.7151 49.304 60.6751 47.888 61.2031 46.208H78.1951C77.6671 50.432 76.0351 54.032 73.2991 57.008C70.6111 59.936 66.9151 62.168 62.2111 63.704C57.5551 65.24 51.9871 66.008 45.5071 66.008Z"/>
</mask>
<path d="M45.5071 66.008C38.5951 66.008 32.6191 64.928 27.5791 62.768C22.5391 60.608 18.6511 57.536 15.9151 53.552C13.1791 49.52 11.8111 44.768 11.8111 39.296C11.8111 36.56 12.1471 34.016 12.8191 31.664C13.5391 29.264 14.5711 27.08 15.9151 25.112C17.2591 23.096 18.9151 21.32 20.8831 19.784C22.8511 18.248 25.0831 16.952 27.5791 15.896C30.0751 14.792 32.8111 13.976 35.7871 13.448C38.8111 12.872 42.0511 12.584 45.5071 12.584C51.9391 12.584 57.4831 13.376 62.1391 14.96C66.8431 16.496 70.5631 18.728 73.2991 21.656C76.0351 24.584 77.6671 28.16 78.1951 32.384H61.2031C60.6751 30.704 59.7151 29.288 58.3231 28.136C56.9311 26.984 55.1551 26.12 52.9951 25.544C50.8351 24.92 48.3391 24.608 45.5071 24.608C43.7791 24.608 42.1471 24.776 40.6111 25.112C39.0751 25.4 37.6591 25.832 36.3631 26.408C35.1151 26.984 33.9871 27.704 32.9791 28.568C32.0191 29.384 31.2031 30.344 30.5311 31.448C29.8591 32.552 29.3311 33.752 28.9471 35.048C28.6111 36.344 28.4431 37.76 28.4431 39.296C28.4431 42.32 29.1391 44.936 30.5311 47.144C31.9231 49.304 33.8911 50.984 36.4351 52.184C38.9791 53.384 42.0031 53.984 45.5071 53.984C48.3871 53.984 50.8831 53.696 52.9951 53.12C55.1551 52.496 56.9311 51.608 58.3231 50.456C59.7151 49.304 60.6751 47.888 61.2031 46.208H78.1951C77.6671 50.432 76.0351 54.032 73.2991 57.008C70.6111 59.936 66.9151 62.168 62.2111 63.704C57.5551 65.24 51.9871 66.008 45.5071 66.008Z" fill="white"/>
<path d="M27.5791 62.768L26.7913 64.6063L27.5791 62.768ZM15.9151 53.552L14.2601 54.675L14.2664 54.6842L15.9151 53.552ZM12.8191 31.664L10.9034 31.0893L10.8997 31.1019L10.896 31.1146L12.8191 31.664ZM15.9151 25.112L17.5667 26.2399L17.573 26.2307L17.5792 26.2214L15.9151 25.112ZM20.8831 19.784L22.1136 21.3606H22.1136L20.8831 19.784ZM27.5791 15.896L28.3584 17.7379L28.3733 17.7316L28.3881 17.7251L27.5791 15.896ZM35.7871 13.448L36.1365 15.4172L36.1489 15.415L36.1613 15.4127L35.7871 13.448ZM62.1391 14.96L61.4949 16.8534L61.5066 16.8574L61.5183 16.8612L62.1391 14.96ZM73.2991 21.656L71.8378 23.0215V23.0215L73.2991 21.656ZM78.1951 32.384V34.384H80.4607L80.1796 32.1359L78.1951 32.384ZM61.2031 32.384L59.2951 32.9837L59.7352 34.384H61.2031V32.384ZM58.3231 28.136L57.048 29.6768H57.048L58.3231 28.136ZM52.9951 25.544L52.44 27.4654L52.4598 27.4711L52.4798 27.4765L52.9951 25.544ZM40.6111 25.112L40.9797 27.0777L41.0092 27.0722L41.0385 27.0658L40.6111 25.112ZM36.3631 26.408L35.5508 24.5804L35.5379 24.5861L35.525 24.5921L36.3631 26.408ZM32.9791 28.568L34.2744 30.0919L34.2807 30.0865L32.9791 28.568ZM28.9471 35.048L27.0295 34.4798L27.0197 34.5128L27.0111 34.5461L28.9471 35.048ZM30.5311 47.144L28.8392 48.2106L28.8446 48.219L28.85 48.2274L30.5311 47.144ZM36.4351 52.184L35.5819 53.9929V53.9929L36.4351 52.184ZM52.9951 53.12L53.5213 55.0495L53.5358 55.0456L53.5502 55.0414L52.9951 53.12ZM58.3231 50.456L57.048 48.9152V48.9152L58.3231 50.456ZM61.2031 46.208V44.208H59.7352L59.2951 45.6083L61.2031 46.208ZM78.1951 46.208L80.1796 46.4561L80.4607 44.208H78.1951V46.208ZM73.2991 57.008L71.8268 55.6544L71.8258 55.6555L73.2991 57.008ZM62.2111 63.704L61.5903 61.8028L61.5845 61.8047L62.2111 63.704ZM45.5071 66.008V64.008C38.7979 64.008 33.1022 62.9591 28.3669 60.9297L27.5791 62.768L26.7913 64.6063C32.136 66.8969 38.3923 68.008 45.5071 68.008V66.008ZM27.5791 62.768L28.3669 60.9297C23.6268 58.8982 20.0576 56.0512 17.5638 52.4198L15.9151 53.552L14.2664 54.6842C17.2446 59.0208 21.4513 62.3178 26.7913 64.6063L27.5791 62.768ZM15.9151 53.552L17.57 52.429C15.086 48.7682 13.8111 44.4187 13.8111 39.296H11.8111H9.81109C9.81109 45.1173 11.2722 50.2718 14.2601 54.675L15.9151 53.552ZM11.8111 39.296H13.8111C13.8111 36.7241 14.1268 34.367 14.7421 32.2134L12.8191 31.664L10.896 31.1146C10.1674 33.665 9.81109 36.3959 9.81109 39.296H11.8111ZM12.8191 31.664L14.7347 32.2387C15.3987 30.0254 16.3445 28.0296 17.5667 26.2399L15.9151 25.112L14.2635 23.9841C12.7977 26.1304 11.6795 28.5026 10.9034 31.0893L12.8191 31.664ZM15.9151 25.112L17.5792 26.2214C18.801 24.3887 20.309 22.7691 22.1136 21.3606L20.8831 19.784L19.6526 18.2074C17.5212 19.8709 15.7172 21.8033 14.251 24.0026L15.9151 25.112ZM20.8831 19.784L22.1136 21.3606C23.9322 19.9412 26.0101 18.7314 28.3584 17.7379L27.5791 15.896L26.7998 14.0541C24.1561 15.1726 21.77 16.5548 19.6526 18.2074L20.8831 19.784ZM27.5791 15.896L28.3881 17.7251C30.7223 16.6926 33.302 15.9201 36.1365 15.4172L35.7871 13.448L35.4377 11.4788C32.3202 12.0319 29.4279 12.8914 26.7701 14.0669L27.5791 15.896ZM35.7871 13.448L36.1613 15.4127C39.048 14.8628 42.1616 14.584 45.5071 14.584V12.584V10.584C41.9406 10.584 38.5742 10.8812 35.4129 11.4833L35.7871 13.448ZM45.5071 12.584V14.584C51.7836 14.584 57.0991 15.3579 61.4949 16.8534L62.1391 14.96L62.7833 13.0666C57.8671 11.3941 52.0946 10.584 45.5071 10.584V12.584ZM62.1391 14.96L61.5183 16.8612C65.9759 18.3167 69.3804 20.3916 71.8378 23.0215L73.2991 21.656L74.7604 20.2905C71.7458 17.0643 67.7103 14.6753 62.7599 13.0588L62.1391 14.96ZM73.2991 21.656L71.8378 23.0215C74.2675 25.6217 75.7314 28.7987 76.2105 32.6321L78.1951 32.384L80.1796 32.1359C79.6028 27.5213 77.8027 23.5463 74.7604 20.2905L73.2991 21.656ZM78.1951 32.384V30.384H61.2031V32.384V34.384H78.1951V32.384ZM61.2031 32.384L63.1111 31.7843C62.4642 29.7261 61.2794 27.9865 59.5982 26.5952L58.3231 28.136L57.048 29.6768C58.1508 30.5895 58.886 31.6819 59.2951 32.9837L61.2031 32.384ZM58.3231 28.136L59.5982 26.5952C57.938 25.2212 55.8846 24.2446 53.5104 23.6115L52.9951 25.544L52.4798 27.4765C54.4256 27.9954 55.9242 28.7468 57.048 29.6768L58.3231 28.136ZM52.9951 25.544L53.5502 23.6226C51.1701 22.935 48.4806 22.608 45.5071 22.608V24.608V26.608C48.1976 26.608 50.5001 26.905 52.44 27.4654L52.9951 25.544ZM45.5071 24.608V22.608C43.6494 22.608 41.8731 22.7886 40.1837 23.1582L40.6111 25.112L41.0385 27.0658C42.4211 26.7634 43.9088 26.608 45.5071 26.608V24.608ZM40.6111 25.112L40.2425 23.1463C38.5691 23.46 37.0024 23.9352 35.5508 24.5804L36.3631 26.408L37.1754 28.2356C38.3158 27.7288 39.5811 27.34 40.9797 27.0777L40.6111 25.112ZM36.3631 26.408L35.525 24.5921C34.1155 25.2426 32.8304 26.0613 31.6775 27.0495L32.9791 28.568L34.2807 30.0865C35.1438 29.3467 36.1147 28.7254 37.2012 28.2239L36.3631 26.408ZM32.9791 28.568L31.6838 27.0441C30.557 28.0019 29.6028 29.1265 28.8227 30.4081L30.5311 31.448L32.2395 32.4879C32.8034 31.5615 33.4812 30.7661 34.2744 30.0919L32.9791 28.568ZM30.5311 31.448L28.8227 30.4081C28.0569 31.6663 27.4603 33.0258 27.0295 34.4798L28.9471 35.048L30.8647 35.6162C31.2019 34.4782 31.6613 33.4377 32.2395 32.4879L30.5311 31.448ZM28.9471 35.048L27.0111 34.5461C26.6269 36.028 26.4431 37.615 26.4431 39.296H28.4431H30.4431C30.4431 37.905 30.5953 36.66 30.8831 35.5499L28.9471 35.048ZM28.4431 39.296H26.4431C26.4431 42.6364 27.2157 45.6353 28.8392 48.2106L30.5311 47.144L32.2229 46.0774C31.0625 44.2367 30.4431 42.0036 30.4431 39.296H28.4431ZM30.5311 47.144L28.85 48.2274C30.4636 50.7314 32.7326 52.6489 35.5819 53.9929L36.4351 52.184L37.2883 50.3751C35.0496 49.3191 33.3826 47.8766 32.2122 46.0606L30.5311 47.144ZM36.4351 52.184L35.5819 53.9929C38.4499 55.3457 41.7787 55.984 45.5071 55.984V53.984V51.984C42.2275 51.984 39.5082 51.4223 37.2883 50.3751L36.4351 52.184ZM45.5071 53.984V55.984C48.5124 55.984 51.1937 55.6843 53.5213 55.0495L52.9951 53.12L52.4689 51.1905C50.5725 51.7077 48.2618 51.984 45.5071 51.984V53.984ZM52.9951 53.12L53.5502 55.0414C55.9113 54.3593 57.95 53.3609 59.5982 51.9968L58.3231 50.456L57.048 48.9152C55.9122 49.8551 54.3989 50.6327 52.44 51.1986L52.9951 53.12ZM58.3231 50.456L59.5982 51.9968C61.2794 50.6055 62.4642 48.8659 63.1111 46.8077L61.2031 46.208L59.2951 45.6083C58.886 46.9101 58.1508 48.0025 57.048 48.9152L58.3231 50.456ZM61.2031 46.208V48.208H78.1951V46.208V44.208H61.2031V46.208ZM78.1951 46.208L76.2105 45.9599C75.7312 49.7944 74.2657 53.0015 71.8268 55.6544L73.2991 57.008L74.7714 58.3616C77.8044 55.0625 79.603 51.0696 80.1796 46.4561L78.1951 46.208ZM73.2991 57.008L71.8258 55.6555C69.4205 58.2755 66.0467 60.3476 61.5903 61.8028L62.2111 63.704L62.8319 65.6052C67.7835 63.9884 71.8017 61.5965 74.7724 58.3605L73.2991 57.008ZM62.2111 63.704L61.5845 61.8047C57.1838 63.2565 51.8385 64.008 45.5071 64.008V66.008V68.008C52.1357 68.008 57.9264 67.2235 62.8377 65.6033L62.2111 63.704Z" fill="white" mask="url(#path-1-outside-1_2596_5223)"/>
</svg>
