<svg width="80" height="78" viewBox="0 0 80 78" fill="none" xmlns="http://www.w3.org/2000/svg">
<rect width="80" height="78" fill="black"/>
<mask id="path-1-outside-1_2596_5229" maskUnits="userSpaceOnUse" x="12" y="11" width="57" height="56" fill="black">
<rect fill="white" x="12" y="11" width="57" height="56"/>
<path d="M14.5024 65V13.592H66.6304V25.616H30.4864V33.536H63.8224V44.984H30.4864V52.976H66.6304V65H14.5024Z"/>
</mask>
<path d="M14.5024 65V13.592H66.6304V25.616H30.4864V33.536H63.8224V44.984H30.4864V52.976H66.6304V65H14.5024Z" fill="white"/>
<path d="M14.5024 65H12.5024V67H14.5024V65ZM14.5024 13.592V11.592H12.5024V13.592H14.5024ZM66.6304 13.592H68.6304V11.592H66.6304V13.592ZM66.6304 25.616V27.616H68.6304V25.616H66.6304ZM30.4864 25.616V23.616H28.4864V25.616H30.4864ZM30.4864 33.536H28.4864V35.536H30.4864V33.536ZM63.8224 33.536H65.8224V31.536H63.8224V33.536ZM63.8224 44.984V46.984H65.8224V44.984H63.8224ZM30.4864 44.984V42.984H28.4864V44.984H30.4864ZM30.4864 52.976H28.4864V54.976H30.4864V52.976ZM66.6304 52.976H68.6304V50.976H66.6304V52.976ZM66.6304 65V67H68.6304V65H66.6304ZM14.5024 65H16.5024V13.592H14.5024H12.5024V65H14.5024ZM14.5024 13.592V15.592H66.6304V13.592V11.592H14.5024V13.592ZM66.6304 13.592H64.6304V25.616H66.6304H68.6304V13.592H66.6304ZM66.6304 25.616V23.616H30.4864V25.616V27.616H66.6304V25.616ZM30.4864 25.616H28.4864V33.536H30.4864H32.4864V25.616H30.4864ZM30.4864 33.536V35.536H63.8224V33.536V31.536H30.4864V33.536ZM63.8224 33.536H61.8224V44.984H63.8224H65.8224V33.536H63.8224ZM63.8224 44.984V42.984H30.4864V44.984V46.984H63.8224V44.984ZM30.4864 44.984H28.4864V52.976H30.4864H32.4864V44.984H30.4864ZM30.4864 52.976V54.976H66.6304V52.976V50.976H30.4864V52.976ZM66.6304 52.976H64.6304V65H66.6304H68.6304V52.976H66.6304ZM66.6304 65V63H14.5024V65V67H66.6304V65Z" fill="white" mask="url(#path-1-outside-1_2596_5229)"/>
</svg>
