<svg width="99" height="78" viewBox="0 0 99 78" fill="none" xmlns="http://www.w3.org/2000/svg">
<rect width="99" height="78" fill="black"/>
<mask id="path-1-outside-1_2596_5217" maskUnits="userSpaceOnUse" x="12" y="11" width="75" height="56" fill="black">
<rect fill="white" x="12" y="11" width="75" height="56"/>
<path d="M14.4399 65V13.592H37.1919L52.8879 54.488H46.9839L62.8959 13.592H84.4959V65H69.0159V23.24L72.1839 23.744L55.4799 65H42.4479L25.7439 23.744L28.8399 23.24V65H14.4399Z"/>
</mask>
<path d="M14.4399 65V13.592H37.1919L52.8879 54.488H46.9839L62.8959 13.592H84.4959V65H69.0159V23.24L72.1839 23.744L55.4799 65H42.4479L25.7439 23.744L28.8399 23.24V65H14.4399Z" fill="white"/>
<path d="M14.4399 65H12.4399V67H14.4399V65ZM14.4399 13.592V11.592H12.4399V13.592H14.4399ZM37.1919 13.592L39.0591 12.8754L38.5666 11.592H37.1919V13.592ZM52.8879 54.488V56.488H55.7978L54.7551 53.7714L52.8879 54.488ZM46.9839 54.488L45.1201 53.7628L44.0597 56.488H46.9839V54.488ZM62.8959 13.592V11.592H61.5281L61.0321 12.8668L62.8959 13.592ZM84.4959 13.592H86.4959V11.592H84.4959V13.592ZM84.4959 65V67H86.4959V65H84.4959ZM69.0159 65H67.0159V67H69.0159V65ZM69.0159 23.24L69.3302 21.2648L67.0159 20.8967V23.24H69.0159ZM72.1839 23.744L74.0378 24.4946L74.9814 22.1639L72.4982 21.7688L72.1839 23.744ZM55.4799 65V67H56.8279L57.3338 65.7506L55.4799 65ZM42.4479 65L40.5941 65.7506L41.1 67H42.4479V65ZM25.7439 23.744L25.4226 21.77L22.9499 22.1725L23.8901 24.4946L25.7439 23.744ZM28.8399 23.24H30.8399V20.8881L28.5186 21.266L28.8399 23.24ZM28.8399 65V67H30.8399V65H28.8399ZM14.4399 65H16.4399V13.592H14.4399H12.4399V65H14.4399ZM14.4399 13.592V15.592H37.1919V13.592V11.592H14.4399V13.592ZM37.1919 13.592L35.3247 14.3086L51.0207 55.2046L52.8879 54.488L54.7551 53.7714L39.0591 12.8754L37.1919 13.592ZM52.8879 54.488V52.488H46.9839V54.488V56.488H52.8879V54.488ZM46.9839 54.488L48.8478 55.2132L64.7598 14.3172L62.8959 13.592L61.0321 12.8668L45.1201 53.7628L46.9839 54.488ZM62.8959 13.592V15.592H84.4959V13.592V11.592H62.8959V13.592ZM84.4959 13.592H82.4959V65H84.4959H86.4959V13.592H84.4959ZM84.4959 65V63H69.0159V65V67H84.4959V65ZM69.0159 65H71.0159V23.24H69.0159H67.0159V65H69.0159ZM69.0159 23.24L68.7017 25.2152L71.8697 25.7192L72.1839 23.744L72.4982 21.7688L69.3302 21.2648L69.0159 23.24ZM72.1839 23.744L70.3301 22.9934L53.6261 64.2494L55.4799 65L57.3338 65.7506L74.0378 24.4946L72.1839 23.744ZM55.4799 65V63H42.4479V65V67H55.4799V65ZM42.4479 65L44.3018 64.2494L27.5978 22.9934L25.7439 23.744L23.8901 24.4946L40.5941 65.7506L42.4479 65ZM25.7439 23.744L26.0653 25.718L29.1613 25.214L28.8399 23.24L28.5186 21.266L25.4226 21.77L25.7439 23.744ZM28.8399 23.24H26.8399V65H28.8399H30.8399V23.24H28.8399ZM28.8399 65V63H14.4399V65V67H28.8399V65Z" fill="white" mask="url(#path-1-outside-1_2596_5217)"/>
</svg>
