<svg width="83" height="78" viewBox="0 0 83 78" fill="none" xmlns="http://www.w3.org/2000/svg">
<rect width="83" height="78" fill="black"/>
<mask id="path-1-outside-1_2596_5227" maskUnits="userSpaceOnUse" x="12" y="11" width="61" height="56" fill="black">
<rect fill="white" x="12" y="11" width="61" height="56"/>
<path d="M14.561 65V13.592H50.201C53.465 13.592 56.369 14 58.913 14.816C61.457 15.632 63.617 16.808 65.393 18.344C67.169 19.88 68.513 21.752 69.425 23.96C70.385 26.168 70.865 28.664 70.865 31.448C70.865 34.232 70.385 36.728 69.425 38.936C68.513 41.144 67.169 43.04 65.393 44.624C63.617 46.16 61.457 47.336 58.913 48.152C56.369 48.968 53.465 49.376 50.201 49.376H30.545V65H14.561ZM30.545 37.208H48.761C49.817 37.208 50.753 36.992 51.569 36.56C52.433 36.08 53.105 35.408 53.585 34.544C54.065 33.68 54.305 32.648 54.305 31.448C54.305 29.624 53.777 28.208 52.721 27.2C51.665 26.144 50.345 25.616 48.761 25.616H30.545V37.208Z"/>
</mask>
<path d="M14.561 65V13.592H50.201C53.465 13.592 56.369 14 58.913 14.816C61.457 15.632 63.617 16.808 65.393 18.344C67.169 19.88 68.513 21.752 69.425 23.96C70.385 26.168 70.865 28.664 70.865 31.448C70.865 34.232 70.385 36.728 69.425 38.936C68.513 41.144 67.169 43.04 65.393 44.624C63.617 46.16 61.457 47.336 58.913 48.152C56.369 48.968 53.465 49.376 50.201 49.376H30.545V65H14.561ZM30.545 37.208H48.761C49.817 37.208 50.753 36.992 51.569 36.56C52.433 36.08 53.105 35.408 53.585 34.544C54.065 33.68 54.305 32.648 54.305 31.448C54.305 29.624 53.777 28.208 52.721 27.2C51.665 26.144 50.345 25.616 48.761 25.616H30.545V37.208Z" fill="white"/>
<path d="M14.561 65H12.561V67H14.561V65ZM14.561 13.592V11.592H12.561V13.592H14.561ZM58.913 14.816L59.5239 12.9116H59.5239L58.913 14.816ZM65.393 18.344L64.0847 19.8567V19.8567L65.393 18.344ZM69.425 23.96L67.5765 24.7235L67.5835 24.7406L67.5909 24.7574L69.425 23.96ZM69.425 38.936L67.5909 38.1385L67.5835 38.1554L67.5765 38.1725L69.425 38.936ZM65.393 44.624L66.7013 46.1367L66.7129 46.1267L66.7243 46.1166L65.393 44.624ZM58.913 48.152L59.5239 50.0564V50.0564L58.913 48.152ZM30.545 49.376V47.376H28.545V49.376H30.545ZM30.545 65V67H32.545V65H30.545ZM30.545 37.208H28.545V39.208H30.545V37.208ZM51.569 36.56L52.5048 38.3276L52.5227 38.3181L52.5403 38.3083L51.569 36.56ZM53.585 34.544L55.3333 35.5153V35.5153L53.585 34.544ZM52.721 27.2L51.3068 28.6142L51.3233 28.6307L51.3401 28.6467L52.721 27.2ZM30.545 25.616V23.616H28.545V25.616H30.545ZM14.561 65H16.561V13.592H14.561H12.561V65H14.561ZM14.561 13.592V15.592H50.201V13.592V11.592H14.561V13.592ZM50.201 13.592V15.592C53.3019 15.592 55.9937 15.98 58.3022 16.7204L58.913 14.816L59.5239 12.9116C56.7443 12.02 53.6281 11.592 50.201 11.592V13.592ZM58.913 14.816L58.3022 16.7204C60.6249 17.4654 62.5387 18.5196 64.0847 19.8567L65.393 18.344L66.7013 16.8313C64.6954 15.0964 62.2892 13.7985 59.5239 12.9116L58.913 14.816ZM65.393 18.344L64.0847 19.8567C65.6204 21.1849 66.7815 22.7988 67.5765 24.7235L69.425 23.96L71.2736 23.1965C70.2446 20.7052 68.7176 18.5751 66.7013 16.8313L65.393 18.344ZM69.425 23.96L67.5909 24.7574C68.4257 26.6775 68.865 28.8958 68.865 31.448H70.865H72.865C72.865 28.4322 72.3444 25.6585 71.2592 23.1625L69.425 23.96ZM70.865 31.448H68.865C68.865 34.0002 68.4257 36.2185 67.5909 38.1385L69.425 38.936L71.2592 39.7335C72.3444 37.2375 72.865 34.4638 72.865 31.448H70.865ZM69.425 38.936L67.5765 38.1725C66.7793 40.1027 65.6117 41.7491 64.0618 43.1314L65.393 44.624L66.7243 46.1166C68.7264 44.3309 70.2468 42.1853 71.2736 39.6995L69.425 38.936ZM65.393 44.624L64.0847 43.1113C62.5387 44.4484 60.6249 45.5025 58.3022 46.2476L58.913 48.152L59.5239 50.0564C62.2892 49.1694 64.6954 47.8716 66.7013 46.1367L65.393 44.624ZM58.913 48.152L58.3022 46.2476C55.9937 46.988 53.3019 47.376 50.201 47.376V49.376V51.376C53.6281 51.376 56.7443 50.948 59.5239 50.0564L58.913 48.152ZM50.201 49.376V47.376H30.545V49.376V51.376H50.201V49.376ZM30.545 49.376H28.545V65H30.545H32.545V49.376H30.545ZM30.545 65V63H14.561V65V67H30.545V65ZM30.545 37.208V39.208H48.761V37.208V35.208H30.545V37.208ZM48.761 37.208V39.208C50.096 39.208 51.3614 38.9329 52.5048 38.3276L51.569 36.56L50.6333 34.7924C50.1446 35.0511 49.5381 35.208 48.761 35.208V37.208ZM51.569 36.56L52.5403 38.3083C53.7308 37.6469 54.672 36.7058 55.3333 35.5153L53.585 34.544L51.8367 33.5727C51.5381 34.1102 51.1353 34.5131 50.5977 34.8117L51.569 36.56ZM53.585 34.544L55.3333 35.5153C56.0103 34.2968 56.305 32.9155 56.305 31.448H54.305H52.305C52.305 32.3805 52.1198 33.0632 51.8367 33.5727L53.585 34.544ZM54.305 31.448H56.305C56.305 29.2225 55.6473 27.2283 54.102 25.7533L52.721 27.2L51.3401 28.6467C51.9068 29.1877 52.305 30.0255 52.305 31.448H54.305ZM52.721 27.2L54.1352 25.7858C52.6797 24.3302 50.8398 23.616 48.761 23.616V25.616V27.616C49.8503 27.616 50.6504 27.9578 51.3068 28.6142L52.721 27.2ZM48.761 25.616V23.616H30.545V25.616V27.616H48.761V25.616ZM30.545 25.616H28.545V37.208H30.545H32.545V25.616H30.545Z" fill="white" mask="url(#path-1-outside-1_2596_5227)"/>
</svg>
