<svg width="84" height="78" viewBox="0 0 84 78" fill="none" xmlns="http://www.w3.org/2000/svg">
<rect width="84" height="78" fill="black"/>
<mask id="path-1-outside-1_2596_5221" maskUnits="userSpaceOnUse" x="10" y="10" width="64" height="59" fill="black">
<rect fill="white" x="10" y="10" width="64" height="59"/>
<path d="M42.6522 66.008C37.9962 66.008 33.8442 65.648 30.1962 64.928C26.5482 64.208 23.4042 63.152 20.7642 61.76C18.1722 60.32 16.1562 58.568 14.7162 56.504C13.3242 54.44 12.5322 52.088 12.3402 49.448H28.8282C29.1642 50.312 29.7162 51.104 30.4842 51.824C31.3002 52.496 32.2842 53.072 33.4362 53.552C34.6362 54.032 36.0042 54.416 37.5402 54.704C39.1242 54.944 40.8282 55.064 42.6522 55.064C45.1482 55.064 47.3322 54.848 49.2042 54.416C51.0762 53.936 52.5402 53.312 53.5962 52.544C54.6522 51.728 55.1802 50.792 55.1802 49.736C55.1802 49.112 55.0362 48.608 54.7482 48.224C54.5082 47.792 54.1002 47.456 53.5242 47.216C52.9962 46.928 52.3242 46.736 51.5082 46.64L33.0762 44.408C29.6682 43.976 26.6922 43.352 24.1482 42.536C21.6522 41.72 19.5882 40.688 17.9562 39.44C16.3242 38.144 15.1002 36.632 14.2842 34.904C13.4682 33.128 13.0602 31.136 13.0602 28.928C13.0602 26.384 13.7082 24.104 15.0042 22.088C16.3002 20.072 18.1722 18.368 20.6202 16.976C23.1162 15.536 26.1162 14.456 29.6202 13.736C33.1242 12.968 37.0842 12.584 41.5002 12.584C45.7242 12.584 49.5162 12.92 52.8762 13.592C56.2362 14.264 59.1162 15.248 61.5162 16.544C63.9162 17.84 65.7642 19.424 67.0602 21.296C68.4042 23.168 69.1722 25.304 69.3642 27.704H52.8042C52.6122 26.792 52.0122 26.048 51.0042 25.472C50.0442 24.848 48.7242 24.368 47.0442 24.032C45.3642 23.696 43.3722 23.528 41.0682 23.528C38.6682 23.528 36.6042 23.72 34.8762 24.104C33.1482 24.44 31.8282 24.944 30.9162 25.616C30.0522 26.288 29.6202 27.104 29.6202 28.064C29.6202 28.64 29.7882 29.192 30.1242 29.72C30.5082 30.2 31.0122 30.608 31.6362 30.944C32.3082 31.28 33.0762 31.496 33.9402 31.592L52.9482 33.896C57.1242 34.376 60.6042 35.264 63.3882 36.56C66.1722 37.856 68.2602 39.56 69.6522 41.672C71.0922 43.736 71.8122 46.232 71.8122 49.16C71.8122 51.896 71.1882 54.32 69.9402 56.432C68.6922 58.496 66.8202 60.248 64.3242 61.688C61.8762 63.128 58.8282 64.208 55.1802 64.928C51.5802 65.648 47.4042 66.008 42.6522 66.008Z"/>
</mask>
<path d="M42.6522 66.008C37.9962 66.008 33.8442 65.648 30.1962 64.928C26.5482 64.208 23.4042 63.152 20.7642 61.76C18.1722 60.32 16.1562 58.568 14.7162 56.504C13.3242 54.44 12.5322 52.088 12.3402 49.448H28.8282C29.1642 50.312 29.7162 51.104 30.4842 51.824C31.3002 52.496 32.2842 53.072 33.4362 53.552C34.6362 54.032 36.0042 54.416 37.5402 54.704C39.1242 54.944 40.8282 55.064 42.6522 55.064C45.1482 55.064 47.3322 54.848 49.2042 54.416C51.0762 53.936 52.5402 53.312 53.5962 52.544C54.6522 51.728 55.1802 50.792 55.1802 49.736C55.1802 49.112 55.0362 48.608 54.7482 48.224C54.5082 47.792 54.1002 47.456 53.5242 47.216C52.9962 46.928 52.3242 46.736 51.5082 46.64L33.0762 44.408C29.6682 43.976 26.6922 43.352 24.1482 42.536C21.6522 41.72 19.5882 40.688 17.9562 39.44C16.3242 38.144 15.1002 36.632 14.2842 34.904C13.4682 33.128 13.0602 31.136 13.0602 28.928C13.0602 26.384 13.7082 24.104 15.0042 22.088C16.3002 20.072 18.1722 18.368 20.6202 16.976C23.1162 15.536 26.1162 14.456 29.6202 13.736C33.1242 12.968 37.0842 12.584 41.5002 12.584C45.7242 12.584 49.5162 12.92 52.8762 13.592C56.2362 14.264 59.1162 15.248 61.5162 16.544C63.9162 17.84 65.7642 19.424 67.0602 21.296C68.4042 23.168 69.1722 25.304 69.3642 27.704H52.8042C52.6122 26.792 52.0122 26.048 51.0042 25.472C50.0442 24.848 48.7242 24.368 47.0442 24.032C45.3642 23.696 43.3722 23.528 41.0682 23.528C38.6682 23.528 36.6042 23.72 34.8762 24.104C33.1482 24.44 31.8282 24.944 30.9162 25.616C30.0522 26.288 29.6202 27.104 29.6202 28.064C29.6202 28.64 29.7882 29.192 30.1242 29.72C30.5082 30.2 31.0122 30.608 31.6362 30.944C32.3082 31.28 33.0762 31.496 33.9402 31.592L52.9482 33.896C57.1242 34.376 60.6042 35.264 63.3882 36.56C66.1722 37.856 68.2602 39.56 69.6522 41.672C71.0922 43.736 71.8122 46.232 71.8122 49.16C71.8122 51.896 71.1882 54.32 69.9402 56.432C68.6922 58.496 66.8202 60.248 64.3242 61.688C61.8762 63.128 58.8282 64.208 55.1802 64.928C51.5802 65.648 47.4042 66.008 42.6522 66.008Z" fill="white"/>
<path d="M30.1962 64.928L30.5835 62.9659V62.9659L30.1962 64.928ZM20.7642 61.76L19.7929 63.5083L19.8121 63.5189L19.8314 63.5291L20.7642 61.76ZM14.7162 56.504L13.0581 57.6223L13.0669 57.6354L13.076 57.6484L14.7162 56.504ZM12.3402 49.448V47.448H10.1895L10.3455 49.5931L12.3402 49.448ZM28.8282 49.448L30.6922 48.7231L30.1964 47.448H28.8282V49.448ZM30.4842 51.824L29.1163 53.2831L29.1632 53.327L29.2128 53.3679L30.4842 51.824ZM33.4362 53.552L32.667 55.3982L32.6802 55.4036L32.6934 55.409L33.4362 53.552ZM37.5402 54.704L37.1716 56.6697L37.206 56.6762L37.2406 56.6814L37.5402 54.704ZM49.2042 54.416L49.6539 56.3648L49.6775 56.3593L49.701 56.3533L49.2042 54.416ZM53.5962 52.544L54.7726 54.1615L54.7961 54.1444L54.8191 54.1266L53.5962 52.544ZM54.7482 48.224L52.9999 49.1953L53.0663 49.3147L53.1482 49.424L54.7482 48.224ZM53.5242 47.216L52.5665 48.9718L52.6584 49.0219L52.755 49.0622L53.5242 47.216ZM51.5082 46.64L51.2678 48.6255L51.2745 48.6263L51.5082 46.64ZM33.0762 44.408L32.8247 46.3922L32.8358 46.3935L33.0762 44.408ZM24.1482 42.536L23.5267 44.437L23.5374 44.4404L24.1482 42.536ZM17.9562 39.44L16.7125 41.0062L16.7268 41.0176L16.7413 41.0287L17.9562 39.44ZM14.2842 34.904L12.4669 35.739L12.4712 35.7485L12.4757 35.758L14.2842 34.904ZM20.6202 16.976L21.6088 18.7146L21.6197 18.7084L20.6202 16.976ZM29.6202 13.736L30.0228 15.6951L30.0356 15.6924L30.0484 15.6896L29.6202 13.736ZM67.0602 21.296L65.4158 22.4344L65.4256 22.4485L65.4356 22.4624L67.0602 21.296ZM69.3642 27.704V29.704H71.5306L71.3579 27.5445L69.3642 27.704ZM52.8042 27.704L50.8471 28.116L51.1814 29.704H52.8042V27.704ZM51.0042 25.472L49.9142 27.1489L49.9622 27.1801L50.0119 27.2085L51.0042 25.472ZM47.0442 24.032L46.652 25.9932H46.652L47.0442 24.032ZM34.8762 24.104L35.258 26.0672L35.2841 26.0621L35.3101 26.0564L34.8762 24.104ZM30.9162 25.616L29.7298 24.0059L29.7089 24.0213L29.6883 24.0373L30.9162 25.616ZM30.1242 29.72L28.4369 30.7937L28.4949 30.885L28.5625 30.9694L30.1242 29.72ZM31.6362 30.944L30.688 32.7049L30.7147 32.7193L30.7418 32.7329L31.6362 30.944ZM33.9402 31.592L34.1809 29.6065L34.171 29.6053L34.1611 29.6042L33.9402 31.592ZM52.9482 33.896L52.7076 35.8815L52.7198 35.8829L52.9482 33.896ZM63.3882 36.56L62.5442 38.3732V38.3732L63.3882 36.56ZM69.6522 41.672L67.9823 42.7726L67.9968 42.7947L68.012 42.8164L69.6522 41.672ZM69.9402 56.432L71.6517 57.4668L71.6569 57.4582L71.6621 57.4495L69.9402 56.432ZM64.3242 61.688L63.3248 59.9556L63.3175 59.9599L63.3102 59.9641L64.3242 61.688ZM55.1802 64.928L54.793 62.9658L54.788 62.9668L55.1802 64.928ZM42.6522 66.008V64.008C38.0953 64.008 34.0768 63.6553 30.5835 62.9659L30.1962 64.928L29.809 66.8901C33.6117 67.6407 37.8972 68.008 42.6522 68.008V66.008ZM30.1962 64.928L30.5835 62.9659C27.0811 62.2746 24.1294 61.2734 21.697 59.9909L20.7642 61.76L19.8314 63.5291C22.679 65.0306 26.0153 66.1414 29.809 66.8901L30.1962 64.928ZM20.7642 61.76L21.7355 60.0117C19.3624 58.6933 17.5939 57.1333 16.3565 55.3596L14.7162 56.504L13.076 57.6484C14.7185 60.0027 16.982 61.9467 19.7929 63.5083L20.7642 61.76ZM14.7162 56.504L16.3744 55.3857C15.19 53.6296 14.5033 51.6175 14.335 49.3029L12.3402 49.448L10.3455 49.5931C10.5612 52.5585 11.4584 55.2504 13.0581 57.6223L14.7162 56.504ZM12.3402 49.448V51.448H28.8282V49.448V47.448H12.3402V49.448ZM28.8282 49.448L26.9642 50.1729C27.4224 51.3512 28.1598 52.3863 29.1163 53.2831L30.4842 51.824L31.8521 50.3649C31.2726 49.8217 30.906 49.2728 30.6922 48.7231L28.8282 49.448ZM30.4842 51.824L29.2128 53.3679C30.2049 54.1849 31.3654 54.8558 32.667 55.3982L33.4362 53.552L34.2055 51.7058C33.203 51.2882 32.3955 50.8071 31.7556 50.2801L30.4842 51.824ZM33.4362 53.552L32.6934 55.409C34.0363 55.9461 35.5332 56.3625 37.1716 56.6697L37.5402 54.704L37.9088 52.7383C36.4752 52.4695 35.2361 52.1179 34.179 51.695L33.4362 53.552ZM37.5402 54.704L37.2406 56.6814C38.9363 56.9383 40.7414 57.064 42.6522 57.064V55.064V53.064C40.915 53.064 39.3122 52.9497 37.8398 52.7266L37.5402 54.704ZM42.6522 55.064V57.064C45.2572 57.064 47.5982 56.8392 49.6539 56.3648L49.2042 54.416L48.7545 52.4672C47.0662 52.8568 45.0392 53.064 42.6522 53.064V55.064ZM49.2042 54.416L49.701 56.3533C51.711 55.8379 53.4389 55.1314 54.7726 54.1615L53.5962 52.544L52.4199 50.9265C51.6415 51.4926 50.4414 52.0341 48.7075 52.4787L49.2042 54.416ZM53.5962 52.544L54.8191 54.1266C56.2231 53.0416 57.1802 51.5712 57.1802 49.736H55.1802H53.1802C53.1802 50.0128 53.0813 50.4144 52.3733 50.9614L53.5962 52.544ZM55.1802 49.736H57.1802C57.1802 48.8093 56.9643 47.8455 56.3482 47.024L54.7482 48.224L53.1482 49.424C53.1328 49.4035 53.1381 49.4006 53.1492 49.4394C53.1615 49.4826 53.1802 49.5756 53.1802 49.736H55.1802ZM54.7482 48.224L56.4965 47.2527C55.9859 46.3335 55.1738 45.7367 54.2934 45.3698L53.5242 47.216L52.755 49.0622C52.8935 49.1198 52.9629 49.1689 52.9908 49.1919C53.0149 49.2117 53.0099 49.2132 52.9999 49.1953L54.7482 48.224ZM53.5242 47.216L54.4819 45.4602C53.6637 45.0139 52.7248 44.7693 51.7419 44.6537L51.5082 46.64L51.2745 48.6263C51.9236 48.7027 52.3287 48.8421 52.5665 48.9718L53.5242 47.216ZM51.5082 46.64L51.7487 44.6545L33.3167 42.4225L33.0762 44.408L32.8358 46.3935L51.2678 48.6255L51.5082 46.64ZM33.0762 44.408L33.3277 42.4239C30.0091 42.0032 27.1584 41.4012 24.7591 40.6316L24.1482 42.536L23.5374 44.4404C26.2261 45.3028 29.3274 45.9488 32.8247 46.3921L33.0762 44.408ZM24.1482 42.536L24.7697 40.635C22.431 39.8704 20.5824 38.9305 19.1711 37.8513L17.9562 39.44L16.7413 41.0287C18.594 42.4455 20.8734 43.5695 23.5267 44.437L24.1482 42.536ZM17.9562 39.44L19.2 37.8738C17.7863 36.7511 16.7661 35.4759 16.0927 34.05L14.2842 34.904L12.4757 35.758C13.4344 37.7881 14.8622 39.5369 16.7125 41.0062L17.9562 39.44ZM14.2842 34.904L16.1016 34.069C15.4206 32.587 15.0602 30.8852 15.0602 28.928H13.0602H11.0602C11.0602 31.3868 11.5158 33.669 12.4669 35.739L14.2842 34.904ZM13.0602 28.928H15.0602C15.0602 26.7428 15.6109 24.8427 16.6866 23.1695L15.0042 22.088L13.3219 21.0065C11.8055 23.3653 11.0602 26.0252 11.0602 28.928H13.0602ZM15.0042 22.088L16.6866 23.1695C17.7796 21.4692 19.3926 19.9748 21.6088 18.7146L20.6202 16.976L19.6316 15.2374C16.9518 16.7612 14.8208 18.6747 13.3219 21.0065L15.0042 22.088ZM20.6202 16.976L21.6197 18.7084C23.8916 17.3977 26.68 16.3819 30.0228 15.6951L29.6202 13.736L29.2177 11.7769C25.5524 12.5301 22.3409 13.6743 19.6208 15.2436L20.6202 16.976ZM29.6202 13.736L30.0484 15.6896C33.3839 14.9586 37.1966 14.584 41.5002 14.584V12.584V10.584C36.9719 10.584 32.8645 10.9774 29.192 11.7824L29.6202 13.736ZM41.5002 12.584V14.584C45.6216 14.584 49.2788 14.9121 52.484 15.5532L52.8762 13.592L53.2685 11.6308C49.7536 10.9279 45.8268 10.584 41.5002 10.584V12.584ZM52.8762 13.592L52.484 15.5532C55.6966 16.1957 58.379 17.1229 60.5659 18.3038L61.5162 16.544L62.4665 14.7842C59.8534 13.3731 56.7759 12.3323 53.2685 11.6308L52.8762 13.592ZM61.5162 16.544L60.5659 18.3038C62.7432 19.4796 64.3312 20.8677 65.4158 22.4344L67.0602 21.296L68.7046 20.1576C67.1972 17.9803 65.0892 16.2004 62.4665 14.7842L61.5162 16.544ZM67.0602 21.296L65.4356 22.4624C66.5575 24.0251 67.2063 25.8095 67.3706 27.8635L69.3642 27.704L71.3579 27.5445C71.1382 24.7985 70.251 22.3109 68.6849 20.1296L67.0602 21.296ZM69.3642 27.704V25.704H52.8042V27.704V29.704H69.3642V27.704ZM52.8042 27.704L54.7613 27.292C54.4237 25.6883 53.3692 24.5199 51.9965 23.7355L51.0042 25.472L50.0119 27.2085C50.6553 27.5761 50.8007 27.8957 50.8471 28.116L52.8042 27.704ZM51.0042 25.472L52.0942 23.7951C50.8436 22.9822 49.2534 22.4342 47.4365 22.0708L47.0442 24.032L46.652 25.9932C48.195 26.3018 49.2448 26.7138 49.9142 27.1489L51.0042 25.472ZM47.0442 24.032L47.4365 22.0708C45.5919 21.7019 43.462 21.528 41.0682 21.528V23.528V25.528C43.2824 25.528 45.1366 25.6901 46.652 25.9932L47.0442 24.032ZM41.0682 23.528V21.528C38.5701 21.528 36.3529 21.7271 34.4424 22.1516L34.8762 24.104L35.3101 26.0564C36.8555 25.7129 38.7663 25.528 41.0682 25.528V23.528ZM34.8762 24.104L34.4945 22.1408C32.6205 22.5052 30.9763 23.0875 29.7298 24.0059L30.9162 25.616L32.1026 27.2261C32.6802 26.8005 33.676 26.3748 35.258 26.0672L34.8762 24.104ZM30.9162 25.616L29.6883 24.0373C28.4146 25.0279 27.6202 26.3949 27.6202 28.064H29.6202H31.6202C31.6202 27.8131 31.6898 27.548 32.1441 27.1947L30.9162 25.616ZM29.6202 28.064H27.6202C27.6202 29.0532 27.9151 29.9737 28.4369 30.7937L30.1242 29.72L31.8115 28.6463C31.6614 28.4103 31.6202 28.2268 31.6202 28.064H29.6202ZM30.1242 29.72L28.5625 30.9694C29.1383 31.6891 29.8631 32.2608 30.688 32.7049L31.6362 30.944L32.5844 29.1831C32.1613 28.9552 31.8782 28.7109 31.686 28.4706L30.1242 29.72ZM31.6362 30.944L30.7418 32.7329C31.6551 33.1895 32.6571 33.4617 33.7194 33.5798L33.9402 31.592L34.1611 29.6042C33.4953 29.5303 32.9613 29.3705 32.5306 29.1551L31.6362 30.944ZM33.9402 31.592L33.6996 33.5775L52.7076 35.8815L52.9482 33.896L53.1889 31.9105L34.1809 29.6065L33.9402 31.592ZM52.9482 33.896L52.7198 35.8829C56.7556 36.3468 60.0117 37.1943 62.5442 38.3732L63.3882 36.56L64.2323 34.7468C61.1968 33.3337 57.4929 32.4052 53.1766 31.9091L52.9482 33.896ZM63.3882 36.56L62.5442 38.3732C65.0643 39.5463 66.834 41.0304 67.9823 42.7726L69.6522 41.672L71.3221 40.5714C69.6864 38.0896 67.2801 36.1657 64.2323 34.7468L63.3882 36.56ZM69.6522 41.672L68.012 42.8164C69.1812 44.4923 69.8122 46.5724 69.8122 49.16H71.8122H73.8122C73.8122 45.8916 73.0032 42.9797 71.2925 40.5276L69.6522 41.672ZM71.8122 49.16H69.8122C69.8122 51.5804 69.2639 53.6452 68.2184 55.4145L69.9402 56.432L71.6621 57.4495C73.1125 54.9948 73.8122 52.2116 73.8122 49.16H71.8122ZM69.9402 56.432L68.2288 55.3972C67.1865 57.1209 65.5852 58.6515 63.3248 59.9556L64.3242 61.688L65.3237 63.4204C68.0552 61.8445 70.1979 59.8711 71.6517 57.4668L69.9402 56.432ZM64.3242 61.688L63.3102 59.9641C61.1057 61.2609 58.2846 62.2767 54.793 62.9659L55.1802 64.928L55.5675 66.8901C59.3719 66.1393 62.6467 64.9951 65.3383 63.4119L64.3242 61.688ZM55.1802 64.928L54.788 62.9668C51.3484 63.6548 47.3087 64.008 42.6522 64.008V66.008V68.008C47.4997 68.008 51.8121 67.6412 55.5725 66.8892L55.1802 64.928Z" fill="white" mask="url(#path-1-outside-1_2596_5221)"/>
</svg>
