<svg width="86" height="78" viewBox="0 0 86 78" fill="none" xmlns="http://www.w3.org/2000/svg">
<rect width="86" height="78" fill="black"/>
<mask id="path-1-outside-1_2596_5219" maskUnits="userSpaceOnUse" x="7" y="11" width="72" height="56" fill="black">
<rect fill="white" x="7" y="11" width="72" height="56"/>
<path d="M35.071 65V45.992L11.095 13.592H29.527L47.815 39.656H39.751L57.967 13.592H74.815L50.983 45.992V65H35.071Z"/>
</mask>
<path d="M35.071 65V45.992L11.095 13.592H29.527L47.815 39.656H39.751L57.967 13.592H74.815L50.983 45.992V65H35.071Z" fill="white"/>
<path d="M35.071 65H33.071V67H35.071V65ZM35.071 45.992H37.071V45.3325L36.6787 44.8023L35.071 45.992ZM11.095 13.592V11.592H7.12695L9.48732 14.7817L11.095 13.592ZM29.527 13.592L31.1642 12.4433L30.5669 11.592H29.527V13.592ZM47.815 39.656V41.656H51.6615L49.4522 38.5073L47.815 39.656ZM39.751 39.656L38.1117 38.5103L35.9132 41.656H39.751V39.656ZM57.967 13.592V11.592H56.9247L56.3277 12.4463L57.967 13.592ZM74.815 13.592L76.4261 14.7771L78.7689 11.592H74.815V13.592ZM50.983 45.992L49.3719 44.8069L48.983 45.3357V45.992H50.983ZM50.983 65V67H52.983V65H50.983ZM35.071 65H37.071V45.992H35.071H33.071V65H35.071ZM35.071 45.992L36.6787 44.8023L12.7027 12.4023L11.095 13.592L9.48732 14.7817L33.4633 47.1817L35.071 45.992ZM11.095 13.592V15.592H29.527V13.592V11.592H11.095V13.592ZM29.527 13.592L27.8898 14.7407L46.1778 40.8047L47.815 39.656L49.4522 38.5073L31.1642 12.4433L29.527 13.592ZM47.815 39.656V37.656H39.751V39.656V41.656H47.815V39.656ZM39.751 39.656L41.3903 40.8017L59.6063 14.7377L57.967 13.592L56.3277 12.4463L38.1117 38.5103L39.751 39.656ZM57.967 13.592V15.592H74.815V13.592V11.592H57.967V13.592ZM74.815 13.592L73.2039 12.4069L49.3719 44.8069L50.983 45.992L52.5941 47.1771L76.4261 14.7771L74.815 13.592ZM50.983 45.992H48.983V65H50.983H52.983V45.992H50.983ZM50.983 65V63H35.071V65V67H50.983V65Z" fill="white" mask="url(#path-1-outside-1_2596_5219)"/>
</svg>
